<svg width="1337.194970703125px" height="120.8px" xmlns="http://www.w3.org/2000/svg" viewBox="-418.59748535156245 14.600000000000001 1337.194970703125 120.8" style="background: rgba(0, 0, 0, 0);" preserveAspectRatio="xMidYMid"><defs><linearGradient id="editing-shiny-gradient" x1="0.04322727117869957" x2="0.9567727288213004" y1="0.2966316784620999" y2="0.7033683215379001" gradientUnits="objectBoundingBox"><stop offset="0.0" stop-color="#ffb200"></stop><stop offset="0.5" stop-color="#e10057"></stop><stop offset="1.0" stop-color="#5A1A80"></stop></linearGradient><linearGradient id="editing-shiny-gradient2" x1="0" x2="0" y1="0" y2="1"><stop offset="0.2" stop-color="#fff" stop-opacity="0.8"></stop><stop offset="0.8" stop-color="#fff" stop-opacity="0"></stop></linearGradient><filter id="editing-shiny2" x="-100%" y="-100%" width="300%" height="300%"><feMorphology operator="erode" radius="2"></feMorphology></filter><filter id="editing-shiny" x="-100%" y="-100%" width="300%" height="300%"><feFlood flood-color="#fff" result="flood"></feFlood><feConvolveMatrix in="SourceGraphic" result="conv" order="8,8" divisor="1" kernelMatrix="0 0 0 0 0 0 0 0 0 0 0 1 1 0 0 0 0 0 0 1 1 0 0 0 0 0 1 0 0 1 0 0 0 0 1 0 0 1 0 0 0 1 0 0 0 0 1 0 0 1 1 0 0 1 1 0 0 0 0 1 1 0 0 0 "></feConvolveMatrix><feOffset dx="0" dy="4" in="conv" result="offset"></feOffset><feComposite operator="in" in="flood" in2="offset" result="comp"></feComposite><feGaussianBlur in="offset" stdDeviation="3" result="shadow"></feGaussianBlur><feColorMatrix in="shadow" type="matrix" values="0.7 0 0 0 0  0 0.7 0 0 0  0 0 0.7 0 0  0 0 0 0.3 0" result="dark-shadow"></feColorMatrix><feOffset dx="0" dy="4" in="dark-shadow" result="offset-shadow"></feOffset><feOffset dx="0" dy="2" in="conv" result="offset-2"></feOffset><feComposite operator="out" in="offset" in2="offset-2" result="edge-diff"></feComposite><feGaussianBlur in="edge-diff" stdDeviation="1" result="edge-blur"></feGaussianBlur><feColorMatrix in="edge-blur" result="edge-shadow" type="matrix" values="0 0 0 0 0  0 0 0 0 0  0 0 0 0 0  0 0 0 0.5 0"></feColorMatrix><feComposite operator="in" in="edge-shadow" in2="offset" result="edge-shadow-in"></feComposite><feOffset dx="0" dy="1" in="edge-shadow-in" result="edge-shadow-final"></feOffset><feMerge result="out"><feMergeNode in="offset-shadow"></feMergeNode><feMergeNode in="comp"></feMergeNode><feMergeNode in="edge-shadow-final"></feMergeNode><feMergeNode in="SourceGraphic"></feMergeNode></feMerge></filter></defs><g filter="url(#editing-shiny)"><g transform="translate(-231.63765144348145, 107.03000259399414)"><path d="M29.18 1.28L29.18 1.28L29.18 1.28Q20.99 1.28 20.22-10.37L20.22-10.37L9.22-10.37L9.22-10.37Q7.94-7.42 7.04-4.86L7.04-4.86L5.38 0L-3.58 0L16.58-42.24L30.34-42.24L33.02-11.14L33.02-11.14Q33.66-4.42 36.22-2.43L36.22-2.43L36.22-2.43Q34.37 1.28 29.18 1.28ZM14.72-23.17L11.20-15.04L20.03-15.04L19.26-31.49L19.26-33.22L14.72-23.17ZM55.23-3.52L55.23-3.52L55.23-3.52Q53.25 1.28 46.91 1.28L46.91 1.28L46.91 1.28Q43.71 1.28 41.66-0.96L41.66-0.96L41.66-0.96Q40-2.82 40-4.93L40-4.93L40-4.93Q40-9.73 42.24-20.22L42.24-20.22L46.91-44.80L59.90-46.08L53.70-13.70L53.70-13.70Q52.61-8.96 52.61-7.30L52.61-7.30L52.61-7.30Q52.61-3.65 55.23-3.52ZM75.97-3.52L75.97-3.52L75.97-3.52Q73.98 1.28 67.65 1.28L67.65 1.28L67.65 1.28Q64.45 1.28 62.40-0.96L62.40-0.96L62.40-0.96Q60.74-2.82 60.74-4.93L60.74-4.93L60.74-4.93Q60.74-9.73 62.98-20.22L62.98-20.22L67.65-44.80L80.64-46.08L74.43-13.70L74.43-13.70Q73.34-8.96 73.34-7.30L73.34-7.30L73.34-7.30Q73.34-3.65 75.97-3.52ZM128-13.25L128-13.25L128-13.25Q129.66-12.03 129.66-9.44L129.66-9.44L129.66-9.44Q129.66-6.85 128.54-5.02L128.54-5.02L128.54-5.02Q127.42-3.20 125.25-1.79L125.25-1.79L125.25-1.79Q120.58 1.22 112.42 1.22L112.42 1.22L112.42 1.22Q104.26 1.22 99.81-3.04L99.81-3.04L99.81-3.04Q95.36-7.30 95.36-14.85L95.36-14.85L95.36-14.85Q95.36-25.54 100.93-33.66L100.93-33.66L100.93-33.66Q105.15-39.68 112.70-42.24L112.70-42.24L112.70-42.24Q116.61-43.52 120.45-43.52L120.45-43.52L120.45-43.52Q124.29-43.52 126.66-43.01L126.66-43.01L126.66-43.01Q129.02-42.50 130.82-41.47L130.82-41.47L130.82-41.47Q134.72-39.23 134.72-35.65L134.72-35.65L134.72-35.65Q134.72-32.38 131.65-29.95L131.65-29.95L131.65-29.95Q128.83-27.78 126.53-27.78L126.53-27.78L126.53-27.78Q124.22-27.78 123.26-28.10L123.26-28.10L123.26-28.10Q123.52-30.40 123.52-31.90L123.52-31.90L123.52-31.90Q123.52-33.41 123.46-34.50L123.46-34.50L123.46-34.50Q123.39-35.58 123.07-36.61L123.07-36.61L123.07-36.61Q122.43-38.98 120.48-38.98L120.48-38.98L120.48-38.98Q118.53-38.98 116.58-37.15L116.58-37.15L116.58-37.15Q114.62-35.33 112.96-32.26L112.96-32.26L112.96-32.26Q109.18-25.28 109.18-17.02L109.18-17.02L109.18-17.02Q109.18-13.06 111.42-10.78L111.42-10.78L111.42-10.78Q113.66-8.51 118.46-8.51L118.46-8.51L118.46-8.51Q122.05-8.51 125.44-10.88L125.44-10.88L125.44-10.88Q126.91-11.90 128-13.25ZM155.01-17.98L155.01-17.98L155.01-17.98Q157.31-22.08 157.31-26.24L157.31-26.24L157.31-26.24Q157.31-28.99 155.33-28.99L155.33-28.99L155.33-28.99Q153.79-28.99 152.19-26.37L152.19-26.37L152.19-26.37Q150.53-23.74 150.02-20.35L150.02-20.35L146.69 0L133.44 1.28L139.97-32.64L150.53-33.92L149.38-27.46L149.38-27.46Q152.51-33.92 159.55-33.92L159.55-33.92L159.55-33.92Q163.26-33.92 165.28-32L165.28-32L165.28-32Q167.30-30.08 167.30-26.14L167.30-26.14L167.30-26.14Q167.30-22.21 164.70-19.71L164.70-19.71L164.70-19.71Q162.11-17.22 157.70-17.22L157.70-17.22L157.70-17.22Q155.78-17.22 155.01-17.98ZM194.24-10.82L194.24-10.82L194.24-10.82Q195.84-9.73 195.84-7.33L195.84-7.33L195.84-7.33Q195.84-4.93 194.62-3.39L194.62-3.39L194.62-3.39Q193.41-1.86 191.42-0.83L191.42-0.83L191.42-0.83Q187.33 1.28 182.91 1.28L182.91 1.28L182.91 1.28Q178.50 1.28 175.90 0.32L175.90 0.32L175.90 0.32Q173.31-0.64 171.58-2.43L171.58-2.43L171.58-2.43Q168.19-5.82 168.19-12.03L168.19-12.03L168.19-12.03Q168.19-21.70 173.44-27.58L173.44-27.58L173.44-27.58Q179.07-33.92 188.86-33.92L188.86-33.92L188.86-33.92Q194.94-33.92 197.95-31.36L197.95-31.36L197.95-31.36Q200.19-29.44 200.19-26.30L200.19-26.30L200.19-26.30Q200.19-15.04 180.74-15.04L180.74-15.04L180.74-15.04Q180.48-13.38 180.48-11.97L180.48-11.97L180.48-11.97Q180.48-9.02 181.79-7.90L181.79-7.90L181.79-7.90Q183.10-6.78 185.54-6.78L185.54-6.78L185.54-6.78Q187.97-6.78 190.56-7.90L190.56-7.90L190.56-7.90Q193.15-9.02 194.24-10.82ZM181.18-17.79L181.18-17.79L181.18-17.79Q185.73-17.79 188.35-20.61L188.35-20.61L188.35-20.61Q190.98-23.30 190.98-27.58L190.98-27.58L190.98-27.58Q190.98-29.06 190.43-29.86L190.43-29.86L190.43-29.86Q189.89-30.66 188.80-30.66L188.80-30.66L188.80-30.66Q187.71-30.66 186.78-30.24L186.78-30.24L186.78-30.24Q185.86-29.82 184.90-28.42L184.90-28.42L184.90-28.42Q182.53-25.22 181.18-17.79ZM222.53-33.92L222.53-33.92L222.53-33.92Q224.83-33.92 226.62-33.41L226.62-33.41L226.62-33.41Q226.69-33.66 226.82-34.37L226.82-34.37L227.14-36.35L227.14-36.35Q227.39-37.63 227.78-39.74L227.78-39.74L228.80-44.80L241.54-46.08L234.43-8.96L234.43-8.96Q234.37-8.58 234.37-7.94L234.37-7.94L234.37-6.91L234.37-6.91Q234.37-5.50 235.07-4.45L235.07-4.45L235.07-4.45Q235.78-3.39 236.93-3.39L236.93-3.39L236.93-3.39Q235.65-0.38 231.74 0.90L231.74 0.90L231.74 0.90Q230.40 1.28 228.51 1.28L228.51 1.28L228.51 1.28Q226.62 1.28 224.90 0.29L224.90 0.29L224.90 0.29Q223.17-0.70 222.66-2.37L222.66-2.37L222.66-2.37Q221.63-0.70 219.58 0.29L219.58 0.29L219.58 0.29Q217.54 1.28 214.56 1.28L214.56 1.28L214.56 1.28Q211.58 1.28 209.12 0.51L209.12 0.51L209.12 0.51Q206.66-0.26 205.12-1.92L205.12-1.92L205.12-1.92Q202.30-5.18 202.30-12.61L202.30-12.61L202.30-12.61Q202.30-22.21 207.94-28.03L207.94-28.03L207.94-28.03Q213.57-33.92 222.53-33.92ZM222.08-30.08L222.08-30.08L222.08-30.08Q219.71-30.08 218.43-27.52L218.43-27.52L218.43-27.52Q217.15-24.96 215.84-18.62L215.84-18.62L215.84-18.62Q214.53-12.29 214.53-6.59L214.53-6.59L214.53-6.59Q214.53-2.69 216.83-2.69L216.83-2.69L216.83-2.69Q218.88-2.69 220.32-4.74L220.32-4.74L220.32-4.74Q221.76-6.78 222.34-10.18L222.34-10.18L225.79-28.93L225.79-28.93Q224.45-30.08 222.08-30.08ZM257.73-3.52L257.73-3.52L257.73-3.52Q255.74 1.28 249.41 1.28L249.41 1.28L249.41 1.28Q246.14 1.28 244.10-0.96L244.10-0.96L244.10-0.96Q242.37-2.94 242.37-4.93L242.37-4.93L242.37-4.93Q242.37-10.11 244.74-20.22L244.74-20.22L247.10-32.64L260.10-33.92L256.19-13.70L256.19-13.70Q255.10-8.96 255.10-7.30L255.10-7.30L255.10-7.30Q255.10-3.65 257.73-3.52ZM248.26-41.54L248.26-41.54L248.26-41.54Q248.26-44.03 250.34-45.38L250.34-45.38L250.34-45.38Q252.42-46.72 255.42-46.72L255.42-46.72L255.42-46.72Q258.43-46.72 260.26-45.38L260.26-45.38L260.26-45.38Q262.08-44.03 262.08-41.54L262.08-41.54L262.08-41.54Q262.08-39.04 260.06-37.76L260.06-37.76L260.06-37.76Q258.05-36.48 255.04-36.48L255.04-36.48L255.04-36.48Q252.03-36.48 250.14-37.76L250.14-37.76L250.14-37.76Q248.26-39.04 248.26-41.54ZM264.19-6.40L264.19-6.40L264.19-6.40Q264.19-8.13 265.09-12.48L265.09-12.48L268.48-29.76L264.70-29.76L264.96-31.68L264.96-31.68Q272.64-33.98 280.06-39.62L280.06-39.62L283.14-39.62L281.60-32.64L286.59-32.64L286.02-29.76L281.09-29.76L277.82-12.48L277.82-12.48Q276.99-8.51 276.99-7.17L276.99-7.17L276.99-7.17Q276.99-4.10 279.68-3.46L279.68-3.46L279.68-3.46Q279.04-1.28 276.74 0L276.74 0L276.74 0Q274.43 1.28 271.17 1.28L271.17 1.28L271.17 1.28Q267.90 1.28 266.05-0.77L266.05-0.77L266.05-0.77Q264.19-2.82 264.19-6.40ZM305.41-22.46L305.41-22.46L305.41-22.46Q306.30-24.83 306.30-26.88L306.30-26.88L306.30-26.88Q306.30-30.66 303.23-30.66L303.23-30.66L303.23-30.66Q301.63-30.66 300.32-29.22L300.32-29.22L300.32-29.22Q299.01-27.78 299.01-25.98L299.01-25.98L299.01-25.98Q299.01-24.70 300.03-23.68L300.03-23.68L300.03-23.68Q301.50-22.27 305.28-19.97L305.28-19.97L305.28-19.97Q309.06-17.66 310.50-15.78L310.50-15.78L310.50-15.78Q311.94-13.89 311.94-11.30L311.94-11.30L311.94-11.30Q311.94-8.70 310.69-6.34L310.69-6.34L310.69-6.34Q309.44-3.97 307.20-2.30L307.20-2.30L307.20-2.30Q302.40 1.28 294.72 1.28L294.72 1.28L294.72 1.28Q290.56 1.28 287.36-0.90L287.36-0.90L287.36-0.90Q284.16-3.01 284.16-5.50L284.16-5.50L284.16-5.50Q284.16-8 285.98-9.47L285.98-9.47L285.98-9.47Q287.81-10.94 290.50-10.94L290.50-10.94L290.50-10.94Q293.18-10.94 294.85-9.92L294.85-9.92L294.85-9.92Q294.02-7.81 294.02-6.40L294.02-6.40L294.02-6.40Q294.02-2.18 297.60-2.18L297.60-2.18L297.60-2.18Q299.14-2.18 300.16-3.14L300.16-3.14L300.16-3.14Q301.18-4.10 301.18-5.76L301.18-5.76L301.18-5.76Q301.18-9.02 295.68-12.48L295.68-12.48L295.68-12.48Q291.20-15.42 290.18-16.58L290.18-16.58L290.18-16.58Q288.45-18.62 288.45-21.18L288.45-21.18L288.45-21.18Q288.45-23.74 289.66-26.18L289.66-26.18L289.66-26.18Q290.88-28.61 293.12-30.34L293.12-30.34L293.12-30.34Q297.79-33.92 305.92-33.92L305.92-33.92L305.92-33.92Q310.08-33.92 312.54-32.26L312.54-32.26L312.54-32.26Q315.01-30.59 315.01-27.78L315.01-27.78L315.01-27.78Q315.01-24.96 313.31-23.36L313.31-23.36L313.31-23.36Q311.62-21.76 308.54-21.76L308.54-21.76L308.54-21.76Q306.43-21.76 305.41-22.46ZM332.93-10.37L332.93-10.37L332.93-10.37Q330.88-11.84 330.88-14.66L330.88-14.66L330.88-14.66Q330.88-16.19 331.65-17.44L331.65-17.44L331.65-17.44Q332.42-18.69 333.95-18.88L333.95-18.88L346.56-18.88L346.56-18.88Q348.67-18.88 349.31-20.16L349.31-20.16L349.31-20.16Q350.34-19.58 350.78-18.37L350.78-18.37L350.78-18.37Q351.23-17.15 351.23-15.87L351.23-15.87L351.23-15.87Q351.23-14.59 350.24-13.34L350.24-13.34L350.24-13.34Q349.25-12.10 347.78-11.97L347.78-11.97L336.06-11.97L336.06-11.97Q334.72-11.97 334.08-11.55L334.08-11.55L334.08-11.55Q333.44-11.14 332.93-10.37ZM373.38-26.75L373.38-26.75L373.38-26.75Q375.55-29.82 378.85-31.87L378.85-31.87L378.85-31.87Q382.14-33.92 386.18-33.92L386.18-33.92L386.18-33.92Q390.21-33.92 392.13-32.64L392.13-32.64L404.67-33.92L400.32-9.34L400.32-9.34Q398.08 3.20 393.34 8.13L393.34 8.13L393.34 8.13Q388.80 12.80 379.97 12.80L379.97 12.80L379.97 12.80Q373.25 12.80 369.41 10.69L369.41 10.69L369.41 10.69Q365.57 8.58 365.57 5.06L365.57 5.06L365.57 5.06Q365.57 2.43 367.55 0.93L367.55 0.93L367.55 0.93Q369.54-0.58 372.61-0.58L372.61-0.58L372.61-0.58Q375.30-0.58 377.34 0.64L377.34 0.64L377.34 0.64Q378.56 1.28 379.14 2.18L379.14 2.18L379.14 2.18Q377.66 3.46 377.66 5.57L377.66 5.57L377.66 5.57Q377.66 8.32 380.22 8.32L380.22 8.32L380.22 8.32Q384.51 8.32 386.94-1.79L386.94-1.79L386.94-1.79Q387.65-4.54 388.22-7.30L388.22-7.30L388.22-7.30Q385.34-3.78 378.82-3.78L378.82-3.78L378.82-3.78Q374.27-3.78 371.65-5.95L371.65-5.95L371.65-5.95Q369.02-8.13 369.02-13.25L369.02-13.25L369.02-13.25Q369.02-16.45 370.11-20.06L370.11-20.06L370.11-20.06Q371.20-23.68 373.38-26.75ZM381.70-13.06L381.70-13.06L381.70-13.06Q381.70-8.70 383.94-8.70L383.94-8.70L383.94-8.70Q385.47-8.70 386.94-10.37L386.94-10.37L386.94-10.37Q388.10-11.71 388.54-13.70L388.54-13.70L391.81-30.14L391.81-30.14Q391.49-30.21 391.17-30.34L391.17-30.34L391.17-30.34Q390.53-30.59 389.70-30.59L389.70-30.59L389.70-30.59Q385.79-30.59 383.49-24.19L383.49-24.19L383.49-24.19Q381.70-19.20 381.70-13.06ZM422.53-3.52L422.53-3.52L422.53-3.52Q420.54 1.28 414.21 1.28L414.21 1.28L414.21 1.28Q410.94 1.28 408.90-0.96L408.90-0.96L408.90-0.96Q407.17-2.94 407.17-4.93L407.17-4.93L407.17-4.93Q407.17-10.11 409.54-20.22L409.54-20.22L411.90-32.64L424.90-33.92L420.99-13.70L420.99-13.70Q419.90-8.96 419.90-7.30L419.90-7.30L419.90-7.30Q419.90-3.65 422.53-3.52ZM413.06-41.54L413.06-41.54L413.06-41.54Q413.06-44.03 415.14-45.38L415.14-45.38L415.14-45.38Q417.22-46.72 420.22-46.72L420.22-46.72L420.22-46.72Q423.23-46.72 425.06-45.38L425.06-45.38L425.06-45.38Q426.88-44.03 426.88-41.54L426.88-41.54L426.88-41.54Q426.88-39.04 424.86-37.76L424.86-37.76L424.86-37.76Q422.85-36.48 419.84-36.48L419.84-36.48L419.84-36.48Q416.83-36.48 414.94-37.76L414.94-37.76L414.94-37.76Q413.06-39.04 413.06-41.54ZM428.99-6.40L428.99-6.40L428.99-6.40Q428.99-8.13 429.89-12.48L429.89-12.48L433.28-29.76L429.50-29.76L429.76-31.68L429.76-31.68Q437.44-33.98 444.86-39.62L444.86-39.62L447.94-39.62L446.40-32.64L451.39-32.64L450.82-29.76L445.89-29.76L442.62-12.48L442.62-12.48Q441.79-8.51 441.79-7.17L441.79-7.17L441.79-7.17Q441.79-4.10 444.48-3.46L444.48-3.46L444.48-3.46Q443.84-1.28 441.54 0L441.54 0L441.54 0Q439.23 1.28 435.97 1.28L435.97 1.28L435.97 1.28Q432.70 1.28 430.85-0.77L430.85-0.77L430.85-0.77Q428.99-2.82 428.99-6.40ZM483.26-7.10L483.26-7.10L483.26-7.10Q483.26-4.29 486.14-3.46L486.14-3.46L486.14-3.46Q485.44-1.09 482.69 0.19L482.69 0.19L482.69 0.19Q480.38 1.28 477.86 1.28L477.86 1.28L477.86 1.28Q475.33 1.28 474.02 0.61L474.02 0.61L474.02 0.61Q472.70-0.06 472.00-1.15L472.00-1.15L472.00-1.15Q470.85-2.82 470.85-5.95L470.85-5.95L470.85-5.95Q470.85-7.81 471.87-12.93L471.87-12.93L472.77-17.79L472.77-17.79Q473.86-23.36 473.86-25.41L473.86-25.41L473.86-25.41Q473.86-28.99 471.87-28.99L471.87-28.99L471.87-28.99Q469.38-28.99 467.78-25.34L467.78-25.34L467.78-25.34Q467.14-23.94 466.69-21.82L466.69-21.82L462.34 0L449.47 1.28L458.50-44.80L471.36-46.08L470.85-43.52L470.85-43.52Q469.06-33.66 467.52-30.34L467.52-30.34L467.52-30.34Q471.10-33.92 477.70-33.92L477.70-33.92L477.70-33.92Q484.67-33.92 485.95-29.31L485.95-29.31L485.95-29.31Q486.40-27.84 486.40-26.56L486.40-26.56L486.40-26.56Q486.40-25.28 486.30-24.29L486.30-24.29L486.30-24.29Q486.21-23.30 485.89-21.50L485.89-21.50L485.06-16.90L483.58-9.66L483.58-9.66Q483.26-8.19 483.26-7.10ZM511.87-2.69L511.87-2.69L511.87-2.69Q508.80 1.28 501.18 1.28L501.18 1.28L501.18 1.28Q497.22 1.28 494.34-1.12L494.34-1.12L494.34-1.12Q491.46-3.52 491.46-6.98L491.46-6.98L491.46-6.98Q491.46-8.90 491.65-9.86L491.65-9.86L495.94-32.64L508.93-33.92L504.26-9.22L504.26-9.22Q504-7.81 504-6.98L504-6.98L504-6.98Q504-3.26 506.24-3.26L506.24-3.26L506.24-3.26Q508.74-3.26 510.53-6.66L510.53-6.66L510.53-6.66Q511.10-7.74 511.36-9.15L511.36-9.15L515.90-32.64L528.51-33.92L523.78-8.96L523.78-8.96Q523.58-8 523.58-6.98L523.58-6.98L523.58-6.98Q523.58-5.95 524.16-4.83L524.16-4.83L524.16-4.83Q524.74-3.71 526.59-3.46L526.59-3.46L526.59-3.46Q526.21-1.92 524.86-0.90L524.86-0.90L524.86-0.90Q522.05 1.28 519.01 1.28L519.01 1.28L519.01 1.28Q515.97 1.28 514.18 0.19L514.18 0.19L514.18 0.19Q512.38-0.90 511.87-2.69ZM531.14-3.07L531.14-3.07L539.07-44.80L552.06-46.08L550.08-36.29L550.08-36.29Q549.38-33.28 548.48-31.17L548.48-31.17L548.48-31.17Q549.89-32.96 552.96-33.66L552.96-33.66L552.96-33.66Q553.86-33.92 554.94-33.92L554.94-33.92L554.94-33.92Q560.90-33.92 564.16-30.30L564.16-30.30L564.16-30.30Q567.42-26.69 567.42-19.71L567.42-19.71L567.42-19.71Q567.42-10.62 562.24-4.93L562.24-4.93L562.24-4.93Q556.67 1.28 546.56 1.28L546.56 1.28L546.56 1.28Q539.58 1.28 534.34-1.02L534.34-1.02L534.34-1.02Q532.48-1.86 531.14-3.07ZM547.39-22.40L544-3.65L544-3.65Q545.34-2.50 547.01-2.50L547.01-2.50L547.01-2.50Q548.67-2.50 549.63-3.14L549.63-3.14L549.63-3.14Q550.59-3.78 551.30-5.06L551.30-5.06L551.30-5.06Q553.22-8.51 554.75-19.07L554.75-19.07L554.75-19.07Q555.20-22.08 555.20-25.09L555.20-25.09L555.20-25.09Q555.20-28.10 554.53-29.06L554.53-29.06L554.53-29.06Q553.86-30.02 552.58-30.02L552.58-30.02L552.58-30.02Q548.67-30.02 547.39-22.40L547.39-22.40ZM566.59 9.54L566.59 9.54L566.59 9.54Q566.59 8.38 567.17 6.72L567.17 6.72L588.10-51.07L588.10-51.07Q589.25-51.26 591.52-51.26L591.52-51.26L591.52-51.26Q593.79-51.26 595.17-50.66L595.17-50.66L595.17-50.66Q596.54-50.05 596.54-48.19L596.54-48.19L596.54-48.19Q596.54-46.59 595.52-43.65L595.52-43.65L575.17 12.54L575.17 12.54Q574.66 12.80 571.65 12.80L571.65 12.80L571.65 12.80Q566.59 12.80 566.59 9.54ZM619.71-42.69L619.71-42.69L619.71-42.69Q635.39-42.69 635.39-31.62L635.39-31.62L635.39-31.62Q635.39-25.54 631.49-21.89L631.49-21.89L631.49-21.89Q627.65-18.24 620.93-18.24L620.93-18.24L620.93-18.24Q617.79-18.24 615.36-20.03L615.36-20.03L615.36-20.03Q614.21-20.80 613.44-21.82L613.44-21.82L613.44-21.82Q618.11-21.82 620.58-24.67L620.58-24.67L620.58-24.67Q623.04-27.52 623.04-33.09L623.04-33.09L623.04-33.09Q623.04-38.66 617.54-38.66L617.54-38.66L616-38.66L616-38.66Q615.62-38.66 615.30-38.59L615.30-38.59L607.94 0L594.05 0L601.92-41.92L601.92-41.92Q608.77-42.56 612.74-42.62L612.74-42.62L612.74-42.62Q616.70-42.69 619.71-42.69ZM655.74-17.98L655.74-17.98L655.74-17.98Q658.05-22.08 658.05-26.24L658.05-26.24L658.05-26.24Q658.05-28.99 656.06-28.99L656.06-28.99L656.06-28.99Q654.53-28.99 652.93-26.37L652.93-26.37L652.93-26.37Q651.26-23.74 650.75-20.35L650.75-20.35L647.42 0L634.18 1.28L640.70-32.64L651.26-33.92L650.11-27.46L650.11-27.46Q653.25-33.92 660.29-33.92L660.29-33.92L660.29-33.92Q664-33.92 666.02-32L666.02-32L666.02-32Q668.03-30.08 668.03-26.14L668.03-26.14L668.03-26.14Q668.03-22.21 665.44-19.71L665.44-19.71L665.44-19.71Q662.85-17.22 658.43-17.22L658.43-17.22L658.43-17.22Q656.51-17.22 655.74-17.98ZM684.42-3.52L684.42-3.52L684.42-3.52Q682.43 1.28 676.10 1.28L676.10 1.28L676.10 1.28Q672.83 1.28 670.78-0.96L670.78-0.96L670.78-0.96Q669.06-2.94 669.06-4.93L669.06-4.93L669.06-4.93Q669.06-10.11 671.42-20.22L671.42-20.22L673.79-32.64L686.78-33.92L682.88-13.70L682.88-13.70Q681.79-8.96 681.79-7.30L681.79-7.30L681.79-7.30Q681.79-3.65 684.42-3.52ZM674.94-41.54L674.94-41.54L674.94-41.54Q674.94-44.03 677.02-45.38L677.02-45.38L677.02-45.38Q679.10-46.72 682.11-46.72L682.11-46.72L682.11-46.72Q685.12-46.72 686.94-45.38L686.94-45.38L686.94-45.38Q688.77-44.03 688.77-41.54L688.77-41.54L688.77-41.54Q688.77-39.04 686.75-37.76L686.75-37.76L686.75-37.76Q684.74-36.48 681.73-36.48L681.73-36.48L681.73-36.48Q678.72-36.48 676.83-37.76L676.83-37.76L676.83-37.76Q674.94-39.04 674.94-41.54ZM735.94 1.28L735.94 1.28L735.94 1.28Q728.19 1.28 728.19-4.74L728.19-4.74L728.19-4.74Q728.19-7.36 729.31-12.45L729.31-12.45L729.31-12.45Q730.43-17.54 730.82-19.58L730.82-19.58L730.82-19.58Q731.71-24.26 731.71-25.73L731.71-25.73L731.71-25.73Q731.71-28.99 729.28-28.99L729.28-28.99L729.28-28.99Q727.68-28.99 726.14-26.78L726.14-26.78L726.14-26.78Q724.61-24.58 723.90-20.16L723.90-20.16L719.94 0L707.46 1.28L710.91-16.13L710.91-16.13Q711.49-19.01 712-22.27L712-22.27L712-22.27Q712.51-25.54 712.51-26.05L712.51-26.05L712.51-26.05Q712.51-28.99 710.34-28.99L710.34-28.99L710.34-28.99Q708.86-28.99 707.26-26.82L707.26-26.82L707.26-26.82Q705.66-24.64 704.77-20.16L704.77-20.16L700.86 0L688.26 1.28L694.98-32.64L705.41-33.92L704.32-27.46L704.32-27.46Q705.98-30.91 709.06-32.42L709.06-32.42L709.06-32.42Q712.13-33.92 716.93-33.92L716.93-33.92L716.93-33.92Q719.68-33.92 721.47-32.58L721.47-32.58L721.47-32.58Q723.26-31.23 723.84-29.06L723.84-29.06L723.84-29.06Q724.93-31.30 727.71-32.61L727.71-32.61L727.71-32.61Q730.50-33.92 733.92-33.92L733.92-33.92L733.92-33.92Q737.34-33.92 739.04-33.18L739.04-33.18L739.04-33.18Q740.74-32.45 741.76-31.23L741.76-31.23L741.76-31.23Q743.49-28.99 743.49-24.90L743.49-24.90L743.49-24.90Q743.49-20.86 741.76-12.48L741.76-12.48L741.76-12.48Q740.86-8.38 740.86-6.88L740.86-6.88L740.86-6.88Q740.86-5.38 741.73-4.48L741.73-4.48L741.73-4.48Q742.59-3.58 743.87-3.46L743.87-3.46L743.87-3.46Q743.23-1.28 741.02 0L741.02 0L741.02 0Q738.82 1.28 735.94 1.28ZM774.72-10.82L774.72-10.82L774.72-10.82Q776.32-9.73 776.32-7.33L776.32-7.33L776.32-7.33Q776.32-4.93 775.10-3.39L775.10-3.39L775.10-3.39Q773.89-1.86 771.90-0.83L771.90-0.83L771.90-0.83Q767.81 1.28 763.39 1.28L763.39 1.28L763.39 1.28Q758.98 1.28 756.38 0.32L756.38 0.32L756.38 0.32Q753.79-0.64 752.06-2.43L752.06-2.43L752.06-2.43Q748.67-5.82 748.67-12.03L748.67-12.03L748.67-12.03Q748.67-21.70 753.92-27.58L753.92-27.58L753.92-27.58Q759.55-33.92 769.34-33.92L769.34-33.92L769.34-33.92Q775.42-33.92 778.43-31.36L778.43-31.36L778.43-31.36Q780.67-29.44 780.67-26.30L780.67-26.30L780.67-26.30Q780.67-15.04 761.22-15.04L761.22-15.04L761.22-15.04Q760.96-13.38 760.96-11.97L760.96-11.97L760.96-11.97Q760.96-9.02 762.27-7.90L762.27-7.90L762.27-7.90Q763.58-6.78 766.02-6.78L766.02-6.78L766.02-6.78Q768.45-6.78 771.04-7.90L771.04-7.90L771.04-7.90Q773.63-9.02 774.72-10.82ZM761.66-17.79L761.66-17.79L761.66-17.79Q766.21-17.79 768.83-20.61L768.83-20.61L768.83-20.61Q771.46-23.30 771.46-27.58L771.46-27.58L771.46-27.58Q771.46-29.06 770.91-29.86L770.91-29.86L770.91-29.86Q770.37-30.66 769.28-30.66L769.28-30.66L769.28-30.66Q768.19-30.66 767.26-30.24L767.26-30.24L767.26-30.24Q766.34-29.82 765.38-28.42L765.38-28.42L765.38-28.42Q763.01-25.22 761.66-17.79ZM785.22-10.37L785.22-10.37L785.22-10.37Q783.17-11.84 783.17-14.66L783.17-14.66L783.17-14.66Q783.17-16.19 783.94-17.44L783.94-17.44L783.94-17.44Q784.70-18.69 786.24-18.88L786.24-18.88L798.85-18.88L798.85-18.88Q800.96-18.88 801.60-20.16L801.60-20.16L801.60-20.16Q802.62-19.58 803.07-18.37L803.07-18.37L803.07-18.37Q803.52-17.15 803.52-15.87L803.52-15.87L803.52-15.87Q803.52-14.59 802.53-13.34L802.53-13.34L802.53-13.34Q801.54-12.10 800.06-11.97L800.06-11.97L788.35-11.97L788.35-11.97Q787.01-11.97 786.37-11.55L786.37-11.55L786.37-11.55Q785.73-11.14 785.22-10.37ZM840.13-7.10L840.13-7.10L840.13-7.10Q840.13-4.29 843.01-3.46L843.01-3.46L843.01-3.46Q842.30-1.09 839.55 0.19L839.55 0.19L839.55 0.19Q837.25 1.28 834.72 1.28L834.72 1.28L834.72 1.28Q832.19 1.28 830.88 0.61L830.88 0.61L830.88 0.61Q829.57-0.06 828.86-1.15L828.86-1.15L828.86-1.15Q827.71-2.82 827.71-5.95L827.71-5.95L827.71-5.95Q827.71-7.81 828.74-12.93L828.74-12.93L829.63-17.79L829.63-17.79Q830.72-23.36 830.72-25.41L830.72-25.41L830.72-25.41Q830.72-28.99 828.74-28.99L828.74-28.99L828.74-28.99Q826.24-28.99 824.64-25.34L824.64-25.34L824.64-25.34Q824-23.94 823.55-21.82L823.55-21.82L819.20 0L806.34 1.28L815.36-44.80L828.22-46.08L827.71-43.52L827.71-43.52Q825.92-33.66 824.38-30.34L824.38-30.34L824.38-30.34Q827.97-33.92 834.56-33.92L834.56-33.92L834.56-33.92Q841.54-33.92 842.82-29.31L842.82-29.31L842.82-29.31Q843.26-27.84 843.26-26.56L843.26-26.56L843.26-26.56Q843.26-25.28 843.17-24.29L843.17-24.29L843.17-24.29Q843.07-23.30 842.75-21.50L842.75-21.50L841.92-16.90L840.45-9.66L840.45-9.66Q840.13-8.19 840.13-7.10ZM868.22-17.98L868.22-17.98L868.22-17.98Q870.53-22.08 870.53-26.24L870.53-26.24L870.53-26.24Q870.53-28.99 868.54-28.99L868.54-28.99L868.54-28.99Q867.01-28.99 865.41-26.37L865.41-26.37L865.41-26.37Q863.74-23.74 863.23-20.35L863.23-20.35L859.90 0L846.66 1.28L853.18-32.64L863.74-33.92L862.59-27.46L862.59-27.46Q865.73-33.92 872.77-33.92L872.77-33.92L872.77-33.92Q876.48-33.92 878.50-32L878.50-32L878.50-32Q880.51-30.08 880.51-26.14L880.51-26.14L880.51-26.14Q880.51-22.21 877.92-19.71L877.92-19.71L877.92-19.71Q875.33-17.22 870.91-17.22L870.91-17.22L870.91-17.22Q868.99-17.22 868.22-17.98ZM896.90-3.52L896.90-3.52L896.90-3.52Q894.91 1.28 888.58 1.28L888.58 1.28L888.58 1.28Q885.31 1.28 883.26-0.96L883.26-0.96L883.26-0.96Q881.54-2.94 881.54-4.93L881.54-4.93L881.54-4.93Q881.54-10.11 883.90-20.22L883.90-20.22L886.27-32.64L899.26-33.92L895.36-13.70L895.36-13.70Q894.27-8.96 894.27-7.30L894.27-7.30L894.27-7.30Q894.27-3.65 896.90-3.52ZM887.42-41.54L887.42-41.54L887.42-41.54Q887.42-44.03 889.50-45.38L889.50-45.38L889.50-45.38Q891.58-46.72 894.59-46.72L894.59-46.72L894.59-46.72Q897.60-46.72 899.42-45.38L899.42-45.38L899.42-45.38Q901.25-44.03 901.25-41.54L901.25-41.54L901.25-41.54Q901.25-39.04 899.23-37.76L899.23-37.76L899.23-37.76Q897.22-36.48 894.21-36.48L894.21-36.48L894.21-36.48Q891.20-36.48 889.31-37.76L889.31-37.76L889.31-37.76Q887.42-39.04 887.42-41.54ZM903.36-6.40L903.36-6.40L903.36-6.40Q903.36-8.13 904.26-12.48L904.26-12.48L907.65-29.76L903.87-29.76L904.13-31.68L904.13-31.68Q911.81-33.98 919.23-39.62L919.23-39.62L922.30-39.62L920.77-32.64L925.76-32.64L925.18-29.76L920.26-29.76L916.99-12.48L916.99-12.48Q916.16-8.51 916.16-7.17L916.16-7.17L916.16-7.17Q916.16-4.10 918.85-3.46L918.85-3.46L918.85-3.46Q918.21-1.28 915.90 0L915.90 0L915.90 0Q913.60 1.28 910.34 1.28L910.34 1.28L910.34 1.28Q907.07 1.28 905.22-0.77L905.22-0.77L905.22-0.77Q903.36-2.82 903.36-6.40ZM945.98-2.69L945.98-2.69L945.98-2.69Q942.91 1.28 935.30 1.28L935.30 1.28L935.30 1.28Q931.33 1.28 928.45-1.12L928.45-1.12L928.45-1.12Q925.57-3.52 925.57-6.98L925.57-6.98L925.57-6.98Q925.57-8.90 925.76-9.86L925.76-9.86L930.05-32.64L943.04-33.92L938.37-9.22L938.37-9.22Q938.11-7.81 938.11-6.98L938.11-6.98L938.11-6.98Q938.11-3.26 940.35-3.26L940.35-3.26L940.35-3.26Q942.85-3.26 944.64-6.66L944.64-6.66L944.64-6.66Q945.22-7.74 945.47-9.15L945.47-9.15L950.02-32.64L962.62-33.92L957.89-8.96L957.89-8.96Q957.70-8 957.70-6.98L957.70-6.98L957.70-6.98Q957.70-5.95 958.27-4.83L958.27-4.83L958.27-4.83Q958.85-3.71 960.70-3.46L960.70-3.46L960.70-3.46Q960.32-1.92 958.98-0.90L958.98-0.90L958.98-0.90Q956.16 1.28 953.12 1.28L953.12 1.28L953.12 1.28Q950.08 1.28 948.29 0.19L948.29 0.19L948.29 0.19Q946.50-0.90 945.98-2.69Z" fill="url(#editing-shiny-gradient)"></path></g></g><g filter="url(#editing-shiny2)"><g transform="translate(-231.52002143859863, 107.03000259399414)"><path d="M29.18 1.28L29.18 1.28L29.18 1.28Q20.99 1.28 20.22-10.37L20.22-10.37L9.22-10.37L9.22-10.37Q7.94-7.42 7.04-4.86L7.04-4.86L5.38 0L-3.58 0L16.58-42.24L30.34-42.24L33.02-11.14L33.02-11.14Q33.66-4.42 36.22-2.43L36.22-2.43L36.22-2.43Q34.37 1.28 29.18 1.28ZM14.72-23.17L11.20-15.04L20.03-15.04L19.26-31.49L19.26-33.22L14.72-23.17ZM55.23-3.52L55.23-3.52L55.23-3.52Q53.25 1.28 46.91 1.28L46.91 1.28L46.91 1.28Q43.71 1.28 41.66-0.96L41.66-0.96L41.66-0.96Q40-2.82 40-4.93L40-4.93L40-4.93Q40-9.73 42.24-20.22L42.24-20.22L46.91-44.80L59.90-46.08L53.70-13.70L53.70-13.70Q52.61-8.96 52.61-7.30L52.61-7.30L52.61-7.30Q52.61-3.65 55.23-3.52ZM75.97-3.52L75.97-3.52L75.97-3.52Q73.98 1.28 67.65 1.28L67.65 1.28L67.65 1.28Q64.45 1.28 62.40-0.96L62.40-0.96L62.40-0.96Q60.74-2.82 60.74-4.93L60.74-4.93L60.74-4.93Q60.74-9.73 62.98-20.22L62.98-20.22L67.65-44.80L80.64-46.08L74.43-13.70L74.43-13.70Q73.34-8.96 73.34-7.30L73.34-7.30L73.34-7.30Q73.34-3.65 75.97-3.52ZM128-13.25L128-13.25L128-13.25Q129.66-12.03 129.66-9.44L129.66-9.44L129.66-9.44Q129.66-6.85 128.54-5.02L128.54-5.02L128.54-5.02Q127.42-3.20 125.25-1.79L125.25-1.79L125.25-1.79Q120.58 1.22 112.42 1.22L112.42 1.22L112.42 1.22Q104.26 1.22 99.81-3.04L99.81-3.04L99.81-3.04Q95.36-7.30 95.36-14.85L95.36-14.85L95.36-14.85Q95.36-25.54 100.93-33.66L100.93-33.66L100.93-33.66Q105.15-39.68 112.70-42.24L112.70-42.24L112.70-42.24Q116.61-43.52 120.45-43.52L120.45-43.52L120.45-43.52Q124.29-43.52 126.66-43.01L126.66-43.01L126.66-43.01Q129.02-42.50 130.82-41.47L130.82-41.47L130.82-41.47Q134.72-39.23 134.72-35.65L134.72-35.65L134.72-35.65Q134.72-32.38 131.65-29.95L131.65-29.95L131.65-29.95Q128.83-27.78 126.53-27.78L126.53-27.78L126.53-27.78Q124.22-27.78 123.26-28.10L123.26-28.10L123.26-28.10Q123.52-30.40 123.52-31.90L123.52-31.90L123.52-31.90Q123.52-33.41 123.46-34.50L123.46-34.50L123.46-34.50Q123.39-35.58 123.07-36.61L123.07-36.61L123.07-36.61Q122.43-38.98 120.48-38.98L120.48-38.98L120.48-38.98Q118.53-38.98 116.58-37.15L116.58-37.15L116.58-37.15Q114.62-35.33 112.96-32.26L112.96-32.26L112.96-32.26Q109.18-25.28 109.18-17.02L109.18-17.02L109.18-17.02Q109.18-13.06 111.42-10.78L111.42-10.78L111.42-10.78Q113.66-8.51 118.46-8.51L118.46-8.51L118.46-8.51Q122.05-8.51 125.44-10.88L125.44-10.88L125.44-10.88Q126.91-11.90 128-13.25ZM155.01-17.98L155.01-17.98L155.01-17.98Q157.31-22.08 157.31-26.24L157.31-26.24L157.31-26.24Q157.31-28.99 155.33-28.99L155.33-28.99L155.33-28.99Q153.79-28.99 152.19-26.37L152.19-26.37L152.19-26.37Q150.53-23.74 150.02-20.35L150.02-20.35L146.69 0L133.44 1.28L139.97-32.64L150.53-33.92L149.38-27.46L149.38-27.46Q152.51-33.92 159.55-33.92L159.55-33.92L159.55-33.92Q163.26-33.92 165.28-32L165.28-32L165.28-32Q167.30-30.08 167.30-26.14L167.30-26.14L167.30-26.14Q167.30-22.21 164.70-19.71L164.70-19.71L164.70-19.71Q162.11-17.22 157.70-17.22L157.70-17.22L157.70-17.22Q155.78-17.22 155.01-17.98ZM194.24-10.82L194.24-10.82L194.24-10.82Q195.84-9.73 195.84-7.33L195.84-7.33L195.84-7.33Q195.84-4.93 194.62-3.39L194.62-3.39L194.62-3.39Q193.41-1.86 191.42-0.83L191.42-0.83L191.42-0.83Q187.33 1.28 182.91 1.28L182.91 1.28L182.91 1.28Q178.50 1.28 175.90 0.32L175.90 0.32L175.90 0.32Q173.31-0.64 171.58-2.43L171.58-2.43L171.58-2.43Q168.19-5.82 168.19-12.03L168.19-12.03L168.19-12.03Q168.19-21.70 173.44-27.58L173.44-27.58L173.44-27.58Q179.07-33.92 188.86-33.92L188.86-33.92L188.86-33.92Q194.94-33.92 197.95-31.36L197.95-31.36L197.95-31.36Q200.19-29.44 200.19-26.30L200.19-26.30L200.19-26.30Q200.19-15.04 180.74-15.04L180.74-15.04L180.74-15.04Q180.48-13.38 180.48-11.97L180.48-11.97L180.48-11.97Q180.48-9.02 181.79-7.90L181.79-7.90L181.79-7.90Q183.10-6.78 185.54-6.78L185.54-6.78L185.54-6.78Q187.97-6.78 190.56-7.90L190.56-7.90L190.56-7.90Q193.15-9.02 194.24-10.82ZM181.18-17.79L181.18-17.79L181.18-17.79Q185.73-17.79 188.35-20.61L188.35-20.61L188.35-20.61Q190.98-23.30 190.98-27.58L190.98-27.58L190.98-27.58Q190.98-29.06 190.43-29.86L190.43-29.86L190.43-29.86Q189.89-30.66 188.80-30.66L188.80-30.66L188.80-30.66Q187.71-30.66 186.78-30.24L186.78-30.24L186.78-30.24Q185.86-29.82 184.90-28.42L184.90-28.42L184.90-28.42Q182.53-25.22 181.18-17.79ZM222.53-33.92L222.53-33.92L222.53-33.92Q224.83-33.92 226.62-33.41L226.62-33.41L226.62-33.41Q226.69-33.66 226.82-34.37L226.82-34.37L227.14-36.35L227.14-36.35Q227.39-37.63 227.78-39.74L227.78-39.74L228.80-44.80L241.54-46.08L234.43-8.96L234.43-8.96Q234.37-8.58 234.37-7.94L234.37-7.94L234.37-6.91L234.37-6.91Q234.37-5.50 235.07-4.45L235.07-4.45L235.07-4.45Q235.78-3.39 236.93-3.39L236.93-3.39L236.93-3.39Q235.65-0.38 231.74 0.90L231.74 0.90L231.74 0.90Q230.40 1.28 228.51 1.28L228.51 1.28L228.51 1.28Q226.62 1.28 224.90 0.29L224.90 0.29L224.90 0.29Q223.17-0.70 222.66-2.37L222.66-2.37L222.66-2.37Q221.63-0.70 219.58 0.29L219.58 0.29L219.58 0.29Q217.54 1.28 214.56 1.28L214.56 1.28L214.56 1.28Q211.58 1.28 209.12 0.51L209.12 0.51L209.12 0.51Q206.66-0.26 205.12-1.92L205.12-1.92L205.12-1.92Q202.30-5.18 202.30-12.61L202.30-12.61L202.30-12.61Q202.30-22.21 207.94-28.03L207.94-28.03L207.94-28.03Q213.57-33.92 222.53-33.92ZM222.08-30.08L222.08-30.08L222.08-30.08Q219.71-30.08 218.43-27.52L218.43-27.52L218.43-27.52Q217.15-24.96 215.84-18.62L215.84-18.62L215.84-18.62Q214.53-12.29 214.53-6.59L214.53-6.59L214.53-6.59Q214.53-2.69 216.83-2.69L216.83-2.69L216.83-2.69Q218.88-2.69 220.32-4.74L220.32-4.74L220.32-4.74Q221.76-6.78 222.34-10.18L222.34-10.18L225.79-28.93L225.79-28.93Q224.45-30.08 222.08-30.08ZM257.73-3.52L257.73-3.52L257.73-3.52Q255.74 1.28 249.41 1.28L249.41 1.28L249.41 1.28Q246.14 1.28 244.10-0.96L244.10-0.96L244.10-0.96Q242.37-2.94 242.37-4.93L242.37-4.93L242.37-4.93Q242.37-10.11 244.74-20.22L244.74-20.22L247.10-32.64L260.10-33.92L256.19-13.70L256.19-13.70Q255.10-8.96 255.10-7.30L255.10-7.30L255.10-7.30Q255.10-3.65 257.73-3.52ZM248.26-41.54L248.26-41.54L248.26-41.54Q248.26-44.03 250.34-45.38L250.34-45.38L250.34-45.38Q252.42-46.72 255.42-46.72L255.42-46.72L255.42-46.72Q258.43-46.72 260.26-45.38L260.26-45.38L260.26-45.38Q262.08-44.03 262.08-41.54L262.08-41.54L262.08-41.54Q262.08-39.04 260.06-37.76L260.06-37.76L260.06-37.76Q258.05-36.48 255.04-36.48L255.04-36.48L255.04-36.48Q252.03-36.48 250.14-37.76L250.14-37.76L250.14-37.76Q248.26-39.04 248.26-41.54ZM264.19-6.40L264.19-6.40L264.19-6.40Q264.19-8.13 265.09-12.48L265.09-12.48L268.48-29.76L264.70-29.76L264.96-31.68L264.96-31.68Q272.64-33.98 280.06-39.62L280.06-39.62L283.14-39.62L281.60-32.64L286.59-32.64L286.02-29.76L281.09-29.76L277.82-12.48L277.82-12.48Q276.99-8.51 276.99-7.17L276.99-7.17L276.99-7.17Q276.99-4.10 279.68-3.46L279.68-3.46L279.68-3.46Q279.04-1.28 276.74 0L276.74 0L276.74 0Q274.43 1.28 271.17 1.28L271.17 1.28L271.17 1.28Q267.90 1.28 266.05-0.77L266.05-0.77L266.05-0.77Q264.19-2.82 264.19-6.40ZM305.41-22.46L305.41-22.46L305.41-22.46Q306.30-24.83 306.30-26.88L306.30-26.88L306.30-26.88Q306.30-30.66 303.23-30.66L303.23-30.66L303.23-30.66Q301.63-30.66 300.32-29.22L300.32-29.22L300.32-29.22Q299.01-27.78 299.01-25.98L299.01-25.98L299.01-25.98Q299.01-24.70 300.03-23.68L300.03-23.68L300.03-23.68Q301.50-22.27 305.28-19.97L305.28-19.97L305.28-19.97Q309.06-17.66 310.50-15.78L310.50-15.78L310.50-15.78Q311.94-13.89 311.94-11.30L311.94-11.30L311.94-11.30Q311.94-8.70 310.69-6.34L310.69-6.34L310.69-6.34Q309.44-3.97 307.20-2.30L307.20-2.30L307.20-2.30Q302.40 1.28 294.72 1.28L294.72 1.28L294.72 1.28Q290.56 1.28 287.36-0.90L287.36-0.90L287.36-0.90Q284.16-3.01 284.16-5.50L284.16-5.50L284.16-5.50Q284.16-8 285.98-9.47L285.98-9.47L285.98-9.47Q287.81-10.94 290.50-10.94L290.50-10.94L290.50-10.94Q293.18-10.94 294.85-9.92L294.85-9.92L294.85-9.92Q294.02-7.81 294.02-6.40L294.02-6.40L294.02-6.40Q294.02-2.18 297.60-2.18L297.60-2.18L297.60-2.18Q299.14-2.18 300.16-3.14L300.16-3.14L300.16-3.14Q301.18-4.10 301.18-5.76L301.18-5.76L301.18-5.76Q301.18-9.02 295.68-12.48L295.68-12.48L295.68-12.48Q291.20-15.42 290.18-16.58L290.18-16.58L290.18-16.58Q288.45-18.62 288.45-21.18L288.45-21.18L288.45-21.18Q288.45-23.74 289.66-26.18L289.66-26.18L289.66-26.18Q290.88-28.61 293.12-30.34L293.12-30.34L293.12-30.34Q297.79-33.92 305.92-33.92L305.92-33.92L305.92-33.92Q310.08-33.92 312.54-32.26L312.54-32.26L312.54-32.26Q315.01-30.59 315.01-27.78L315.01-27.78L315.01-27.78Q315.01-24.96 313.31-23.36L313.31-23.36L313.31-23.36Q311.62-21.76 308.54-21.76L308.54-21.76L308.54-21.76Q306.43-21.76 305.41-22.46ZM332.93-10.37L332.93-10.37L332.93-10.37Q330.88-11.84 330.88-14.66L330.88-14.66L330.88-14.66Q330.88-16.19 331.65-17.44L331.65-17.44L331.65-17.44Q332.42-18.69 333.95-18.88L333.95-18.88L346.56-18.88L346.56-18.88Q348.67-18.88 349.31-20.16L349.31-20.16L349.31-20.16Q350.34-19.58 350.78-18.37L350.78-18.37L350.78-18.37Q351.23-17.15 351.23-15.87L351.23-15.87L351.23-15.87Q351.23-14.59 350.24-13.34L350.24-13.34L350.24-13.34Q349.25-12.10 347.78-11.97L347.78-11.97L336.06-11.97L336.06-11.97Q334.72-11.97 334.08-11.55L334.08-11.55L334.08-11.55Q333.44-11.14 332.93-10.37ZM373.38-26.75L373.38-26.75L373.38-26.75Q375.55-29.82 378.85-31.87L378.85-31.87L378.85-31.87Q382.14-33.92 386.18-33.92L386.18-33.92L386.18-33.92Q390.21-33.92 392.13-32.64L392.13-32.64L404.67-33.92L400.32-9.34L400.32-9.34Q398.08 3.20 393.34 8.13L393.34 8.13L393.34 8.13Q388.80 12.80 379.97 12.80L379.97 12.80L379.97 12.80Q373.25 12.80 369.41 10.69L369.41 10.69L369.41 10.69Q365.57 8.58 365.57 5.06L365.57 5.06L365.57 5.06Q365.57 2.43 367.55 0.93L367.55 0.93L367.55 0.93Q369.54-0.58 372.61-0.58L372.61-0.58L372.61-0.58Q375.30-0.58 377.34 0.64L377.34 0.64L377.34 0.64Q378.56 1.28 379.14 2.18L379.14 2.18L379.14 2.18Q377.66 3.46 377.66 5.57L377.66 5.57L377.66 5.57Q377.66 8.32 380.22 8.32L380.22 8.32L380.22 8.32Q384.51 8.32 386.94-1.79L386.94-1.79L386.94-1.79Q387.65-4.54 388.22-7.30L388.22-7.30L388.22-7.30Q385.34-3.78 378.82-3.78L378.82-3.78L378.82-3.78Q374.27-3.78 371.65-5.95L371.65-5.95L371.65-5.95Q369.02-8.13 369.02-13.25L369.02-13.25L369.02-13.25Q369.02-16.45 370.11-20.06L370.11-20.06L370.11-20.06Q371.20-23.68 373.38-26.75ZM381.70-13.06L381.70-13.06L381.70-13.06Q381.70-8.70 383.94-8.70L383.94-8.70L383.94-8.70Q385.47-8.70 386.94-10.37L386.94-10.37L386.94-10.37Q388.10-11.71 388.54-13.70L388.54-13.70L391.81-30.14L391.81-30.14Q391.49-30.21 391.17-30.34L391.17-30.34L391.17-30.34Q390.53-30.59 389.70-30.59L389.70-30.59L389.70-30.59Q385.79-30.59 383.49-24.19L383.49-24.19L383.49-24.19Q381.70-19.20 381.70-13.06ZM422.53-3.52L422.53-3.52L422.53-3.52Q420.54 1.28 414.21 1.28L414.21 1.28L414.21 1.28Q410.94 1.28 408.90-0.96L408.90-0.96L408.90-0.96Q407.17-2.94 407.17-4.93L407.17-4.93L407.17-4.93Q407.17-10.11 409.54-20.22L409.54-20.22L411.90-32.64L424.90-33.92L420.99-13.70L420.99-13.70Q419.90-8.96 419.90-7.30L419.90-7.30L419.90-7.30Q419.90-3.65 422.53-3.52ZM413.06-41.54L413.06-41.54L413.06-41.54Q413.06-44.03 415.14-45.38L415.14-45.38L415.14-45.38Q417.22-46.72 420.22-46.72L420.22-46.72L420.22-46.72Q423.23-46.72 425.06-45.38L425.06-45.38L425.06-45.38Q426.88-44.03 426.88-41.54L426.88-41.54L426.88-41.54Q426.88-39.04 424.86-37.76L424.86-37.76L424.86-37.76Q422.85-36.48 419.84-36.48L419.84-36.48L419.84-36.48Q416.83-36.48 414.94-37.76L414.94-37.76L414.94-37.76Q413.06-39.04 413.06-41.54ZM428.99-6.40L428.99-6.40L428.99-6.40Q428.99-8.13 429.89-12.48L429.89-12.48L433.28-29.76L429.50-29.76L429.76-31.68L429.76-31.68Q437.44-33.98 444.86-39.62L444.86-39.62L447.94-39.62L446.40-32.64L451.39-32.64L450.82-29.76L445.89-29.76L442.62-12.48L442.62-12.48Q441.79-8.51 441.79-7.17L441.79-7.17L441.79-7.17Q441.79-4.10 444.48-3.46L444.48-3.46L444.48-3.46Q443.84-1.28 441.54 0L441.54 0L441.54 0Q439.23 1.28 435.97 1.28L435.97 1.28L435.97 1.28Q432.70 1.28 430.85-0.77L430.85-0.77L430.85-0.77Q428.99-2.82 428.99-6.40ZM483.26-7.10L483.26-7.10L483.26-7.10Q483.26-4.29 486.14-3.46L486.14-3.46L486.14-3.46Q485.44-1.09 482.69 0.19L482.69 0.19L482.69 0.19Q480.38 1.28 477.86 1.28L477.86 1.28L477.86 1.28Q475.33 1.28 474.02 0.61L474.02 0.61L474.02 0.61Q472.70-0.06 472.00-1.15L472.00-1.15L472.00-1.15Q470.85-2.82 470.85-5.95L470.85-5.95L470.85-5.95Q470.85-7.81 471.87-12.93L471.87-12.93L472.77-17.79L472.77-17.79Q473.86-23.36 473.86-25.41L473.86-25.41L473.86-25.41Q473.86-28.99 471.87-28.99L471.87-28.99L471.87-28.99Q469.38-28.99 467.78-25.34L467.78-25.34L467.78-25.34Q467.14-23.94 466.69-21.82L466.69-21.82L462.34 0L449.47 1.28L458.50-44.80L471.36-46.08L470.85-43.52L470.85-43.52Q469.06-33.66 467.52-30.34L467.52-30.34L467.52-30.34Q471.10-33.92 477.70-33.92L477.70-33.92L477.70-33.92Q484.67-33.92 485.95-29.31L485.95-29.31L485.95-29.31Q486.40-27.84 486.40-26.56L486.40-26.56L486.40-26.56Q486.40-25.28 486.30-24.29L486.30-24.29L486.30-24.29Q486.21-23.30 485.89-21.50L485.89-21.50L485.06-16.90L483.58-9.66L483.58-9.66Q483.26-8.19 483.26-7.10ZM511.87-2.69L511.87-2.69L511.87-2.69Q508.80 1.28 501.18 1.28L501.18 1.28L501.18 1.28Q497.22 1.28 494.34-1.12L494.34-1.12L494.34-1.12Q491.46-3.52 491.46-6.98L491.46-6.98L491.46-6.98Q491.46-8.90 491.65-9.86L491.65-9.86L495.94-32.64L508.93-33.92L504.26-9.22L504.26-9.22Q504-7.81 504-6.98L504-6.98L504-6.98Q504-3.26 506.24-3.26L506.24-3.26L506.24-3.26Q508.74-3.26 510.53-6.66L510.53-6.66L510.53-6.66Q511.10-7.74 511.36-9.15L511.36-9.15L515.90-32.64L528.51-33.92L523.78-8.96L523.78-8.96Q523.58-8 523.58-6.98L523.58-6.98L523.58-6.98Q523.58-5.95 524.16-4.83L524.16-4.83L524.16-4.83Q524.74-3.71 526.59-3.46L526.59-3.46L526.59-3.46Q526.21-1.92 524.86-0.90L524.86-0.90L524.86-0.90Q522.05 1.28 519.01 1.28L519.01 1.28L519.01 1.28Q515.97 1.28 514.18 0.19L514.18 0.19L514.18 0.19Q512.38-0.90 511.87-2.69ZM531.14-3.07L531.14-3.07L539.07-44.80L552.06-46.08L550.08-36.29L550.08-36.29Q549.38-33.28 548.48-31.17L548.48-31.17L548.48-31.17Q549.89-32.96 552.96-33.66L552.96-33.66L552.96-33.66Q553.86-33.92 554.94-33.92L554.94-33.92L554.94-33.92Q560.90-33.92 564.16-30.30L564.16-30.30L564.16-30.30Q567.42-26.69 567.42-19.71L567.42-19.71L567.42-19.71Q567.42-10.62 562.24-4.93L562.24-4.93L562.24-4.93Q556.67 1.28 546.56 1.28L546.56 1.28L546.56 1.28Q539.58 1.28 534.34-1.02L534.34-1.02L534.34-1.02Q532.48-1.86 531.14-3.07ZM547.39-22.40L544-3.65L544-3.65Q545.34-2.50 547.01-2.50L547.01-2.50L547.01-2.50Q548.67-2.50 549.63-3.14L549.63-3.14L549.63-3.14Q550.59-3.78 551.30-5.06L551.30-5.06L551.30-5.06Q553.22-8.51 554.75-19.07L554.75-19.07L554.75-19.07Q555.20-22.08 555.20-25.09L555.20-25.09L555.20-25.09Q555.20-28.10 554.53-29.06L554.53-29.06L554.53-29.06Q553.86-30.02 552.58-30.02L552.58-30.02L552.58-30.02Q548.67-30.02 547.39-22.40L547.39-22.40ZM566.59 9.54L566.59 9.54L566.59 9.54Q566.59 8.38 567.17 6.72L567.17 6.72L588.10-51.07L588.10-51.07Q589.25-51.26 591.52-51.26L591.52-51.26L591.52-51.26Q593.79-51.26 595.17-50.66L595.17-50.66L595.17-50.66Q596.54-50.05 596.54-48.19L596.54-48.19L596.54-48.19Q596.54-46.59 595.52-43.65L595.52-43.65L575.17 12.54L575.17 12.54Q574.66 12.80 571.65 12.80L571.65 12.80L571.65 12.80Q566.59 12.80 566.59 9.54ZM619.71-42.69L619.71-42.69L619.71-42.69Q635.39-42.69 635.39-31.62L635.39-31.62L635.39-31.62Q635.39-25.54 631.49-21.89L631.49-21.89L631.49-21.89Q627.65-18.24 620.93-18.24L620.93-18.24L620.93-18.24Q617.79-18.24 615.36-20.03L615.36-20.03L615.36-20.03Q614.21-20.80 613.44-21.82L613.44-21.82L613.44-21.82Q618.11-21.82 620.58-24.67L620.58-24.67L620.58-24.67Q623.04-27.52 623.04-33.09L623.04-33.09L623.04-33.09Q623.04-38.66 617.54-38.66L617.54-38.66L616-38.66L616-38.66Q615.62-38.66 615.30-38.59L615.30-38.59L607.94 0L594.05 0L601.92-41.92L601.92-41.92Q608.77-42.56 612.74-42.62L612.74-42.62L612.74-42.62Q616.70-42.69 619.71-42.69ZM655.74-17.98L655.74-17.98L655.74-17.98Q658.05-22.08 658.05-26.24L658.05-26.24L658.05-26.24Q658.05-28.99 656.06-28.99L656.06-28.99L656.06-28.99Q654.53-28.99 652.93-26.37L652.93-26.37L652.93-26.37Q651.26-23.74 650.75-20.35L650.75-20.35L647.42 0L634.18 1.28L640.70-32.64L651.26-33.92L650.11-27.46L650.11-27.46Q653.25-33.92 660.29-33.92L660.29-33.92L660.29-33.92Q664-33.92 666.02-32L666.02-32L666.02-32Q668.03-30.08 668.03-26.14L668.03-26.14L668.03-26.14Q668.03-22.21 665.44-19.71L665.44-19.71L665.44-19.71Q662.85-17.22 658.43-17.22L658.43-17.22L658.43-17.22Q656.51-17.22 655.74-17.98ZM684.42-3.52L684.42-3.52L684.42-3.52Q682.43 1.28 676.10 1.28L676.10 1.28L676.10 1.28Q672.83 1.28 670.78-0.96L670.78-0.96L670.78-0.96Q669.06-2.94 669.06-4.93L669.06-4.93L669.06-4.93Q669.06-10.11 671.42-20.22L671.42-20.22L673.79-32.64L686.78-33.92L682.88-13.70L682.88-13.70Q681.79-8.96 681.79-7.30L681.79-7.30L681.79-7.30Q681.79-3.65 684.42-3.52ZM674.94-41.54L674.94-41.54L674.94-41.54Q674.94-44.03 677.02-45.38L677.02-45.38L677.02-45.38Q679.10-46.72 682.11-46.72L682.11-46.72L682.11-46.72Q685.12-46.72 686.94-45.38L686.94-45.38L686.94-45.38Q688.77-44.03 688.77-41.54L688.77-41.54L688.77-41.54Q688.77-39.04 686.75-37.76L686.75-37.76L686.75-37.76Q684.74-36.48 681.73-36.48L681.73-36.48L681.73-36.48Q678.72-36.48 676.83-37.76L676.83-37.76L676.83-37.76Q674.94-39.04 674.94-41.54ZM735.94 1.28L735.94 1.28L735.94 1.28Q728.19 1.28 728.19-4.74L728.19-4.74L728.19-4.74Q728.19-7.36 729.31-12.45L729.31-12.45L729.31-12.45Q730.43-17.54 730.82-19.58L730.82-19.58L730.82-19.58Q731.71-24.26 731.71-25.73L731.71-25.73L731.71-25.73Q731.71-28.99 729.28-28.99L729.28-28.99L729.28-28.99Q727.68-28.99 726.14-26.78L726.14-26.78L726.14-26.78Q724.61-24.58 723.90-20.16L723.90-20.16L719.94 0L707.46 1.28L710.91-16.13L710.91-16.13Q711.49-19.01 712-22.27L712-22.27L712-22.27Q712.51-25.54 712.51-26.05L712.51-26.05L712.51-26.05Q712.51-28.99 710.34-28.99L710.34-28.99L710.34-28.99Q708.86-28.99 707.26-26.82L707.26-26.82L707.26-26.82Q705.66-24.64 704.77-20.16L704.77-20.16L700.86 0L688.26 1.28L694.98-32.64L705.41-33.92L704.32-27.46L704.32-27.46Q705.98-30.91 709.06-32.42L709.06-32.42L709.06-32.42Q712.13-33.92 716.93-33.92L716.93-33.92L716.93-33.92Q719.68-33.92 721.47-32.58L721.47-32.58L721.47-32.58Q723.26-31.23 723.84-29.06L723.84-29.06L723.84-29.06Q724.93-31.30 727.71-32.61L727.71-32.61L727.71-32.61Q730.50-33.92 733.92-33.92L733.92-33.92L733.92-33.92Q737.34-33.92 739.04-33.18L739.04-33.18L739.04-33.18Q740.74-32.45 741.76-31.23L741.76-31.23L741.76-31.23Q743.49-28.99 743.49-24.90L743.49-24.90L743.49-24.90Q743.49-20.86 741.76-12.48L741.76-12.48L741.76-12.48Q740.86-8.38 740.86-6.88L740.86-6.88L740.86-6.88Q740.86-5.38 741.73-4.48L741.73-4.48L741.73-4.48Q742.59-3.58 743.87-3.46L743.87-3.46L743.87-3.46Q743.23-1.28 741.02 0L741.02 0L741.02 0Q738.82 1.28 735.94 1.28ZM774.72-10.82L774.72-10.82L774.72-10.82Q776.32-9.73 776.32-7.33L776.32-7.33L776.32-7.33Q776.32-4.93 775.10-3.39L775.10-3.39L775.10-3.39Q773.89-1.86 771.90-0.83L771.90-0.83L771.90-0.83Q767.81 1.28 763.39 1.28L763.39 1.28L763.39 1.28Q758.98 1.28 756.38 0.32L756.38 0.32L756.38 0.32Q753.79-0.64 752.06-2.43L752.06-2.43L752.06-2.43Q748.67-5.82 748.67-12.03L748.67-12.03L748.67-12.03Q748.67-21.70 753.92-27.58L753.92-27.58L753.92-27.58Q759.55-33.92 769.34-33.92L769.34-33.92L769.34-33.92Q775.42-33.92 778.43-31.36L778.43-31.36L778.43-31.36Q780.67-29.44 780.67-26.30L780.67-26.30L780.67-26.30Q780.67-15.04 761.22-15.04L761.22-15.04L761.22-15.04Q760.96-13.38 760.96-11.97L760.96-11.97L760.96-11.97Q760.96-9.02 762.27-7.90L762.27-7.90L762.27-7.90Q763.58-6.78 766.02-6.78L766.02-6.78L766.02-6.78Q768.45-6.78 771.04-7.90L771.04-7.90L771.04-7.90Q773.63-9.02 774.72-10.82ZM761.66-17.79L761.66-17.79L761.66-17.79Q766.21-17.79 768.83-20.61L768.83-20.61L768.83-20.61Q771.46-23.30 771.46-27.58L771.46-27.58L771.46-27.58Q771.46-29.06 770.91-29.86L770.91-29.86L770.91-29.86Q770.37-30.66 769.28-30.66L769.28-30.66L769.28-30.66Q768.19-30.66 767.26-30.24L767.26-30.24L767.26-30.24Q766.34-29.82 765.38-28.42L765.38-28.42L765.38-28.42Q763.01-25.22 761.66-17.79ZM785.22-10.37L785.22-10.37L785.22-10.37Q783.17-11.84 783.17-14.66L783.17-14.66L783.17-14.66Q783.17-16.19 783.94-17.44L783.94-17.44L783.94-17.44Q784.70-18.69 786.24-18.88L786.24-18.88L798.85-18.88L798.85-18.88Q800.96-18.88 801.60-20.16L801.60-20.16L801.60-20.16Q802.62-19.58 803.07-18.37L803.07-18.37L803.07-18.37Q803.52-17.15 803.52-15.87L803.52-15.87L803.52-15.87Q803.52-14.59 802.53-13.34L802.53-13.34L802.53-13.34Q801.54-12.10 800.06-11.97L800.06-11.97L788.35-11.97L788.35-11.97Q787.01-11.97 786.37-11.55L786.37-11.55L786.37-11.55Q785.73-11.14 785.22-10.37ZM840.13-7.10L840.13-7.10L840.13-7.10Q840.13-4.29 843.01-3.46L843.01-3.46L843.01-3.46Q842.30-1.09 839.55 0.19L839.55 0.19L839.55 0.19Q837.25 1.28 834.72 1.28L834.72 1.28L834.72 1.28Q832.19 1.28 830.88 0.61L830.88 0.61L830.88 0.61Q829.57-0.06 828.86-1.15L828.86-1.15L828.86-1.15Q827.71-2.82 827.71-5.95L827.71-5.95L827.71-5.95Q827.71-7.81 828.74-12.93L828.74-12.93L829.63-17.79L829.63-17.79Q830.72-23.36 830.72-25.41L830.72-25.41L830.72-25.41Q830.72-28.99 828.74-28.99L828.74-28.99L828.74-28.99Q826.24-28.99 824.64-25.34L824.64-25.34L824.64-25.34Q824-23.94 823.55-21.82L823.55-21.82L819.20 0L806.34 1.28L815.36-44.80L828.22-46.08L827.71-43.52L827.71-43.52Q825.92-33.66 824.38-30.34L824.38-30.34L824.38-30.34Q827.97-33.92 834.56-33.92L834.56-33.92L834.56-33.92Q841.54-33.92 842.82-29.31L842.82-29.31L842.82-29.31Q843.26-27.84 843.26-26.56L843.26-26.56L843.26-26.56Q843.26-25.28 843.17-24.29L843.17-24.29L843.17-24.29Q843.07-23.30 842.75-21.50L842.75-21.50L841.92-16.90L840.45-9.66L840.45-9.66Q840.13-8.19 840.13-7.10ZM868.22-17.98L868.22-17.98L868.22-17.98Q870.53-22.08 870.53-26.24L870.53-26.24L870.53-26.24Q870.53-28.99 868.54-28.99L868.54-28.99L868.54-28.99Q867.01-28.99 865.41-26.37L865.41-26.37L865.41-26.37Q863.74-23.74 863.23-20.35L863.23-20.35L859.90 0L846.66 1.28L853.18-32.64L863.74-33.92L862.59-27.46L862.59-27.46Q865.73-33.92 872.77-33.92L872.77-33.92L872.77-33.92Q876.48-33.92 878.50-32L878.50-32L878.50-32Q880.51-30.08 880.51-26.14L880.51-26.14L880.51-26.14Q880.51-22.21 877.92-19.71L877.92-19.71L877.92-19.71Q875.33-17.22 870.91-17.22L870.91-17.22L870.91-17.22Q868.99-17.22 868.22-17.98ZM896.90-3.52L896.90-3.52L896.90-3.52Q894.91 1.28 888.58 1.28L888.58 1.28L888.58 1.28Q885.31 1.28 883.26-0.96L883.26-0.96L883.26-0.96Q881.54-2.94 881.54-4.93L881.54-4.93L881.54-4.93Q881.54-10.11 883.90-20.22L883.90-20.22L886.27-32.64L899.26-33.92L895.36-13.70L895.36-13.70Q894.27-8.96 894.27-7.30L894.27-7.30L894.27-7.30Q894.27-3.65 896.90-3.52ZM887.42-41.54L887.42-41.54L887.42-41.54Q887.42-44.03 889.50-45.38L889.50-45.38L889.50-45.38Q891.58-46.72 894.59-46.72L894.59-46.72L894.59-46.72Q897.60-46.72 899.42-45.38L899.42-45.38L899.42-45.38Q901.25-44.03 901.25-41.54L901.25-41.54L901.25-41.54Q901.25-39.04 899.23-37.76L899.23-37.76L899.23-37.76Q897.22-36.48 894.21-36.48L894.21-36.48L894.21-36.48Q891.20-36.48 889.31-37.76L889.31-37.76L889.31-37.76Q887.42-39.04 887.42-41.54ZM903.36-6.40L903.36-6.40L903.36-6.40Q903.36-8.13 904.26-12.48L904.26-12.48L907.65-29.76L903.87-29.76L904.13-31.68L904.13-31.68Q911.81-33.98 919.23-39.62L919.23-39.62L922.30-39.62L920.77-32.64L925.76-32.64L925.18-29.76L920.26-29.76L916.99-12.48L916.99-12.48Q916.16-8.51 916.16-7.17L916.16-7.17L916.16-7.17Q916.16-4.10 918.85-3.46L918.85-3.46L918.85-3.46Q918.21-1.28 915.90 0L915.90 0L915.90 0Q913.60 1.28 910.34 1.28L910.34 1.28L910.34 1.28Q907.07 1.28 905.22-0.77L905.22-0.77L905.22-0.77Q903.36-2.82 903.36-6.40ZM945.98-2.69L945.98-2.69L945.98-2.69Q942.91 1.28 935.30 1.28L935.30 1.28L935.30 1.28Q931.33 1.28 928.45-1.12L928.45-1.12L928.45-1.12Q925.57-3.52 925.57-6.98L925.57-6.98L925.57-6.98Q925.57-8.90 925.76-9.86L925.76-9.86L930.05-32.64L943.04-33.92L938.37-9.22L938.37-9.22Q938.11-7.81 938.11-6.98L938.11-6.98L938.11-6.98Q938.11-3.26 940.35-3.26L940.35-3.26L940.35-3.26Q942.85-3.26 944.64-6.66L944.64-6.66L944.64-6.66Q945.22-7.74 945.47-9.15L945.47-9.15L950.02-32.64L962.62-33.92L957.89-8.96L957.89-8.96Q957.70-8 957.70-6.98L957.70-6.98L957.70-6.98Q957.70-5.95 958.27-4.83L958.27-4.83L958.27-4.83Q958.85-3.71 960.70-3.46L960.70-3.46L960.70-3.46Q960.32-1.92 958.98-0.90L958.98-0.90L958.98-0.90Q956.16 1.28 953.12 1.28L953.12 1.28L953.12 1.28Q950.08 1.28 948.29 0.19L948.29 0.19L948.29 0.19Q946.50-0.90 945.98-2.69Z" fill="url(#editing-shiny-gradient2)"></path></g></g><style>text {
  font-size: 64px;
  font-family: Arial Black;
  dominant-baseline: central;
  text-anchor: middle;
}</style></svg>
